<svg width="80" height="81" viewBox="0 0 80 81" fill="none" xmlns="http://www.w3.org/2000/svg">
<path d="M77.4459 40.0149C77.474 60.7288 60.7284 77.5149 40.0508 77.5149C19.3732 77.5149 2.58215 60.7288 2.55411 40.0149C2.52608 19.301 19.2717 2.51487 39.9493 2.51487C60.6269 2.51487 77.4179 19.301 77.4459 40.0149Z" fill="url(#paint0_linear_1469_1666)" stroke="white" stroke-width="5"/>
<g clip-path="url(#clip0_1469_1666)">
<path d="M26.7965 21.0891C25.7129 21.3192 25.4532 21.4899 25.4532 21.9723C25.4532 22.195 25.5793 22.3508 26.7446 23.5309L28.036 24.8372L27.8059 26.2176L27.5758 27.5907L26.2028 27.8208L24.8223 28.0508L23.5161 26.7594C22.2989 25.5571 22.1876 25.468 21.9352 25.468C21.2895 25.468 21.0372 26.2251 21.0372 28.177C21.0372 29.268 21.0594 29.5204 21.2079 30.0251C21.9204 32.504 23.761 34.3446 26.2399 35.0571C27.0415 35.2872 29.0454 35.302 29.8989 35.0868L30.4407 34.9458L33.4243 37.9294L36.4004 40.9055L35.6805 41.6255L34.9532 42.3454L34.0774 41.477C33.2239 40.6383 33.1868 40.6087 32.8676 40.6087C32.5559 40.6087 32.5262 40.6309 31.5243 41.6329C30.3294 42.8204 30.3442 42.7907 30.7227 43.9114C30.8415 44.2751 30.9305 44.5794 30.9231 44.5942C30.9083 44.6016 30.604 44.5126 30.2403 44.3938C29.0231 43.9856 29.4758 43.6813 25.6536 47.4887C23.8204 49.3219 22.1727 51.0067 21.9946 51.2368C21.5938 51.7489 21.2747 52.4169 21.104 53.0774C20.9184 53.7973 20.9852 55.1704 21.2376 55.8383C21.7645 57.2411 22.8704 58.3321 24.2583 58.8071C24.6813 58.9555 24.8891 58.9778 25.8243 58.9778C26.7965 58.9704 26.945 58.9555 27.3977 58.7774C28.4442 58.384 28.5926 58.2505 32.3036 54.5618C36.3708 50.5169 36.0368 50.9993 35.6211 49.7747C35.5024 49.411 35.4133 49.1067 35.4208 49.0919C35.4356 49.0844 35.7399 49.1735 36.1036 49.2922C37.2243 49.6708 37.1946 49.6856 38.3821 48.4907C39.384 47.4887 39.4063 47.459 39.4063 47.1473C39.4063 46.8282 39.3766 46.7911 38.5379 45.9376L37.6696 45.0618L38.3895 44.3344L39.1094 43.6145L41.0391 45.5442L42.9688 47.4739L42.7833 48.0231C42.3454 49.3219 42.2415 51.029 42.5235 52.4094C43.1915 55.6676 45.7075 58.1837 49.0176 58.8739C49.9305 59.0669 51.4446 59.0669 52.3575 58.8739C55.6825 58.1762 58.1614 55.6973 58.859 52.3723C59.052 51.4594 59.052 49.9454 58.859 49.0325C58.1614 45.7075 55.6825 43.2286 52.3575 42.5309C51.0438 42.2563 49.2848 42.3676 48.0083 42.7981L47.459 42.9837L45.5294 41.054L43.5997 39.1243L48.2012 34.5227L52.8028 29.9212H54.2649C55.5711 29.9212 55.7493 29.9063 55.868 29.7876C55.9348 29.7208 56.6696 28.4368 57.4934 26.945C58.718 24.7333 59.0001 24.1692 59.0001 23.9391C59.0001 23.6719 58.9333 23.5903 57.679 22.336C56.4247 21.0817 56.3504 21.0149 56.0758 21.0149C55.8383 21.0149 55.2891 21.2895 53.0329 22.5438C51.5188 23.3825 50.2348 24.1247 50.1903 24.1915C50.1161 24.2731 50.0938 24.711 50.0938 25.7575V27.2122L45.4922 31.8137L40.8907 36.4153L37.9145 33.4391L34.9309 30.4555L35.0719 29.9137C35.2872 29.0602 35.2723 27.0563 35.0422 26.2547C34.3297 23.7907 32.4965 21.9501 30.0473 21.2301C29.6094 21.104 29.2606 21.0669 28.3106 21.0446C27.6575 21.0372 26.9747 21.052 26.7965 21.0891ZM29.5723 22.4251C29.7801 22.477 30.2774 22.6774 30.6856 22.8704C31.9547 23.4864 32.7711 24.3028 33.3946 25.5794C33.8844 26.5813 34.018 27.2344 33.9735 28.3848C33.9438 29.0973 33.8919 29.4165 33.7434 29.884C33.6321 30.2106 33.543 30.5743 33.543 30.7005C33.543 30.8934 34.3001 31.6801 39.8961 37.2762L46.2493 43.6294L45.7743 43.9633C45.1731 44.3938 44.379 45.188 43.9485 45.7891L43.6145 46.2641L37.2614 39.911C30.2551 32.9047 30.8415 33.4169 30.1215 33.6766C29.1196 34.0329 27.8727 34.1145 26.8633 33.8919C26.559 33.8251 25.9727 33.6098 25.5645 33.4094C24.2879 32.786 23.479 31.977 22.8555 30.7005C22.4176 29.795 22.2618 29.127 22.2618 28.1325V27.368L23.2489 28.3477C24.429 29.513 24.1395 29.4462 26.4403 29.0676C28.3106 28.7633 28.5407 28.704 28.652 28.5036C28.7559 28.3032 29.3126 25.0153 29.3126 24.5848C29.3126 24.2657 29.2903 24.236 28.3403 23.2712L27.3606 22.284L27.7614 22.2618C28.2586 22.2321 29.0825 22.3063 29.5723 22.4251ZM56.7661 23.2712L57.6047 24.1098L56.3208 26.4254L55.0368 28.7337H53.5895H52.1348L47.4071 33.4614L42.6719 38.1965L42.2489 37.7661L41.8184 37.343L46.5536 32.6079L51.2813 27.8801V26.4254V24.9782L53.5672 23.7016C54.8215 23.004 55.8606 22.4325 55.8829 22.4325C55.9051 22.4251 56.2985 22.8036 56.7661 23.2712ZM37.7735 42.2786L38.1817 42.6868L37.4544 43.4141L36.7344 44.134L36.3114 43.7036L35.8809 43.2805L36.586 42.5755C36.9719 42.1895 37.3059 41.8704 37.3282 41.8704C37.3504 41.8704 37.5508 42.0559 37.7735 42.2786ZM35.3985 44.6536L37.8848 47.1399L37.3653 47.6594L36.8458 48.179L36.2669 47.9934C35.9477 47.8895 35.5469 47.8079 35.3762 47.8079C34.7083 47.8153 34.1368 48.3868 34.1368 49.077C34.1368 49.2626 34.2184 49.6633 34.3223 49.9676L34.5079 50.5169L31.2274 53.8047C28.0805 56.9516 27.9172 57.1075 27.3458 57.3895C25.5571 58.2801 23.4493 57.538 22.5735 55.6973C22.3286 55.1704 22.2989 55.0516 22.2766 54.3762C22.2469 53.5376 22.3879 52.9512 22.7813 52.3352C22.9001 52.1497 24.4586 50.5391 26.2473 48.7579L29.4981 45.5071L30.077 45.6926C30.3961 45.7965 30.7969 45.8782 30.9676 45.8782C31.6282 45.8708 32.1997 45.2993 32.2071 44.6387C32.2071 44.468 32.1254 44.0672 32.0215 43.7481L31.8434 43.1692L32.3333 42.6645C32.6079 42.3899 32.8528 42.1672 32.8751 42.1672C32.8973 42.1672 34.0329 43.288 35.3985 44.6536ZM51.9047 43.7333C54.4801 44.1489 56.6844 46.1305 57.4934 48.7505C57.679 49.3516 57.6938 49.5001 57.6938 50.7024C57.6938 51.9047 57.679 52.0532 57.4934 52.6544C56.9145 54.5247 55.6973 56.0239 54.0051 56.9368C52.9364 57.5157 51.9047 57.7606 50.6133 57.7606C47.5333 57.7532 44.7797 55.6676 43.8965 52.6692C43.6516 51.8528 43.5626 50.4204 43.711 49.5446C44.1192 46.9915 46.0489 44.7649 48.5352 43.9633C49.6485 43.6071 50.6579 43.5403 51.9047 43.7333Z" fill="white"/>
<path d="M29.8691 29.9211L29.4238 30.3665L30.0398 30.9825L30.6484 31.5911L31.1086 31.1235L31.5762 30.6633L30.9824 30.0696C30.6559 29.743 30.3738 29.4758 30.3516 29.4758C30.3293 29.4758 30.1141 29.6762 29.8691 29.9211Z" fill="white"/>
<path d="M26.752 50.554L23.4863 53.8196L23.9539 54.2797L24.4141 54.7473L27.6945 51.4668L30.9824 48.179L30.5371 47.7336C30.2922 47.4887 30.077 47.2883 30.0547 47.2883C30.0324 47.2883 28.548 48.7579 26.752 50.554Z" fill="white"/>
<path d="M28.5332 52.3352L25.2676 55.6008L25.7352 56.061L26.1953 56.5286L29.4758 53.2481L32.7637 49.9602L32.3184 49.5149C32.0734 49.27 31.8582 49.0696 31.8359 49.0696C31.8137 49.0696 30.3293 50.5391 28.5332 52.3352Z" fill="white"/>
<path d="M48.5723 47.4813C47.5555 47.9934 46.6723 48.4684 46.6277 48.5352C46.5535 48.6243 46.5312 49.1735 46.5312 50.6727C46.5312 51.786 46.5535 52.7508 46.5758 52.8176C46.6426 52.9883 50.4055 54.8586 50.6875 54.8586C50.9695 54.8586 54.7324 52.9883 54.7992 52.8176C54.8586 52.6543 54.8586 48.7504 54.7992 48.5872C54.725 48.4016 50.9621 46.5461 50.6727 46.5536C50.5168 46.5536 49.7672 46.8875 48.5723 47.4813ZM52.209 48.602L53.6562 49.3293V50.7024V52.0754L52.1719 52.8176L50.6875 53.5598L49.2031 52.8176L47.7188 52.0754V50.7024V49.3293L49.1512 48.6094C49.9305 48.2161 50.6207 47.8895 50.6652 47.8895C50.7172 47.8821 51.4148 48.2086 52.209 48.602Z" fill="white"/>
</g>
<defs>
<linearGradient id="paint0_linear_1469_1666" x1="39.9459" y1="0.0148925" x2="41.7666" y2="141.835" gradientUnits="userSpaceOnUse">
<stop stop-color="#1643C3"/>
<stop offset="1"/>
</linearGradient>
<clipPath id="clip0_1469_1666">
<rect width="38" height="38" fill="white" transform="translate(21 21.0149)"/>
</clipPath>
</defs>
</svg>
