<svg width="80" height="81" viewBox="0 0 80 81" fill="none" xmlns="http://www.w3.org/2000/svg">
<path d="M77.4459 40.0149C77.474 60.7288 60.7284 77.5149 40.0508 77.5149C19.3732 77.5149 2.58215 60.7288 2.55411 40.0149C2.52608 19.301 19.2717 2.51487 39.9493 2.51487C60.6269 2.51487 77.4179 19.301 77.4459 40.0149Z" fill="url(#paint0_linear_1469_1622)" stroke="white" stroke-width="5"/>
<path d="M46.1799 27.7949C46.2999 28.0149 46.3999 28.3749 46.3999 28.5949C46.3999 28.8949 46.5599 28.9949 47.0399 29.0549C47.5999 29.0949 47.7199 29.2149 47.7599 29.6749C47.8399 30.3549 47.4999 30.8149 46.8999 30.8149C46.5599 30.8149 46.4199 30.9549 46.3399 31.3949C46.0799 32.6349 44.5999 32.6349 44.5999 31.4149C44.5999 30.8949 44.5199 30.8149 44.0199 30.8149C43.2999 30.8149 42.9599 30.4149 43.0399 29.6749C43.0999 29.1949 43.1999 29.1149 43.8399 29.0549C44.5399 28.9949 44.5799 28.9549 44.6399 28.2549C44.6999 27.5949 44.7599 27.5149 45.3399 27.4549C45.7999 27.4149 46.0199 27.4949 46.1799 27.7949Z" fill="white"/>
<path d="M39.5588 27.6549C39.6988 27.7949 39.7988 28.1549 39.7988 28.4549C39.7988 28.9349 39.8788 29.0149 40.3588 29.0149C40.6588 29.0149 41.0188 29.1149 41.1588 29.2549C41.7188 29.8149 41.1788 30.8149 40.2788 30.8149C39.9188 30.8149 39.7988 30.9149 39.7988 31.2549C39.7988 31.8149 39.5988 32.0949 39.1388 32.2749C38.5388 32.4949 37.9988 32.0749 37.9988 31.4149C37.9988 30.9349 37.9188 30.8149 37.5788 30.8149C36.9188 30.8149 36.3988 30.4349 36.3988 29.9549C36.3988 29.3349 36.7588 29.0149 37.4388 29.0149C37.9188 29.0149 37.9988 28.9349 37.9988 28.4549C37.9988 27.7949 38.3188 27.4149 38.8988 27.4149C39.1388 27.4149 39.4188 27.5149 39.5588 27.6549Z" fill="white"/>
<path d="M42.7588 32.655C42.8988 32.795 42.9988 33.375 42.9988 33.955V35.015H44.0788C45.2188 35.015 45.7988 35.335 45.7988 35.995C45.7988 36.595 45.3588 36.815 44.1588 36.815H42.9988V37.975C42.9988 39.215 42.7788 39.615 42.0988 39.615C41.4188 39.615 41.1988 39.215 41.1988 37.975V36.835L39.9388 36.775C38.7388 36.715 38.6988 36.695 38.6388 36.115C38.5388 35.335 39.0188 35.015 40.2388 35.015H41.1988V33.955C41.1988 32.815 41.4388 32.415 42.0988 32.415C42.3388 32.415 42.6188 32.515 42.7588 32.655Z" fill="white"/>
<path d="M56.2997 38.4949C57.4597 38.9949 58.0397 40.7149 57.4197 41.8549C56.9997 42.6749 47.4997 49.0149 44.3997 50.5549C43.0797 51.2149 42.6797 51.3149 41.1997 51.3749C40.1397 51.4149 38.3797 51.2949 36.6197 51.0349C33.8397 50.6349 30.2797 50.4949 29.0197 50.7349C28.4797 50.8549 28.3997 50.9549 28.3997 51.5149C28.3997 52.5549 28.1397 52.6349 25.1797 52.5749L22.4997 52.5149V45.8149V39.1149H25.3997H28.2997L28.3597 39.8749C28.4197 40.5149 28.4797 40.6149 28.7597 40.5149C30.9197 39.6949 33.9397 39.6149 36.7197 40.3149C38.3997 40.7349 39.1397 40.8149 41.7597 40.8149C44.9197 40.8149 45.7397 40.9949 46.1597 41.7349C46.3197 42.0149 46.9197 41.7749 50.3197 40.1349C54.4797 38.1349 55.0997 37.9749 56.2997 38.4949ZM50.6997 42.0149C48.3997 43.1349 46.2397 44.2949 45.8597 44.6149C45.4997 44.9349 44.9997 45.2549 44.7397 45.3149C43.7797 45.5149 35.6797 45.7549 35.3397 45.5749C34.9597 45.3749 34.8597 44.3149 35.2197 44.0949C35.3397 44.0149 37.4397 43.8749 39.8797 43.7749C42.2997 43.6549 44.4197 43.4749 44.5597 43.3749C44.7397 43.2149 44.7397 43.0949 44.5797 42.8949C44.3997 42.6749 43.6197 42.6149 41.2197 42.6149C38.5197 42.6149 37.8597 42.5349 36.2997 42.1149C34.0797 41.4949 32.4797 41.4949 30.1997 42.0749C28.5197 42.5149 28.4997 42.5149 28.3997 43.2149C28.3197 43.8149 28.2197 43.9149 27.6797 43.9749C26.8397 44.0549 26.6397 43.7149 26.5397 42.1149C26.5197 41.3349 26.4797 43.0149 26.4797 45.8149C26.4797 48.6149 26.4997 50.3749 26.5397 49.7149C26.5797 49.0549 26.6397 48.3149 26.6997 48.0749C26.9197 47.1149 28.3997 47.3749 28.3997 48.3749V48.9149L31.1397 48.8549C33.1797 48.7949 34.6597 48.8949 36.9397 49.2149C40.8597 49.7749 41.8597 49.7149 43.7997 48.7549C46.1997 47.5749 55.5397 41.3949 55.7397 40.8549C55.8597 40.5549 55.4597 40.0149 55.0997 40.0149C54.9597 40.0149 52.9797 40.9149 50.6997 42.0149ZM23.9997 45.8149C23.9997 50.1349 24.0397 50.8149 24.2997 50.8149C24.5597 50.8149 24.5997 50.1349 24.5997 45.8149C24.5997 41.4949 24.5597 40.8149 24.2997 40.8149C24.0397 40.8149 23.9997 41.4949 23.9997 45.8149Z" fill="white"/>
<defs>
<linearGradient id="paint0_linear_1469_1622" x1="39.9459" y1="0.0148925" x2="41.7666" y2="141.835" gradientUnits="userSpaceOnUse">
<stop stop-color="#1643C3"/>
<stop offset="1"/>
</linearGradient>
</defs>
</svg>
