<svg width="283" height="283" viewBox="0 0 283 283" fill="none" xmlns="http://www.w3.org/2000/svg">
<g filter="url(#filter0_d_1472_14295)">
<circle cx="141.5" cy="136.88" r="106.88" fill="#1643C3" fill-opacity="0.5" shape-rendering="crispEdges"/>
</g>
<path fill-rule="evenodd" clip-rule="evenodd" d="M147.097 86.5726C156.975 87.7109 164.03 90.3012 171.858 95.6647C175.136 97.911 180.829 103.385 182.474 105.872C183.054 106.749 183.684 107.467 183.874 107.467C184.064 107.467 184.219 107.637 184.219 107.845C184.219 108.053 184.753 109.015 185.405 109.981C187.09 112.481 189.125 117.016 190.534 121.417C194.594 134.089 192.591 149.083 185.292 160.675C184.602 161.771 183.809 162.905 183.531 163.195C183.252 163.485 183.024 163.891 183.024 164.098C183.024 164.305 180.983 166.531 178.487 169.045L173.95 173.615L183.366 173.721L192.783 173.828L192.891 180.906L193 187.985L172.977 187.881L152.953 187.778V178.212V168.647L154.745 168.027C159.242 166.471 163.596 163.772 167.093 160.374C169.392 158.141 171.474 155.769 171.474 155.385C171.474 155.26 171.724 154.875 172.031 154.529C172.809 153.649 175.044 149.434 175.745 147.523C177.213 143.523 177.837 139.892 177.836 135.366C177.833 125.669 174.532 117.884 167.303 110.532C165.684 108.885 163.988 107.42 163.535 107.276C163.082 107.132 162.711 106.869 162.711 106.691C162.711 106.311 156.149 103.016 153.551 102.091C151.134 101.231 145.177 100.308 142 100.301C138.884 100.294 133.343 101.153 130.63 102.064C128.038 102.933 121.289 106.277 121.289 106.691C121.289 106.869 120.926 107.129 120.484 107.27C119.008 107.739 112.946 114.339 111.1 117.488C107.522 123.591 106.151 128.571 106.158 135.445C106.165 141.975 108.084 148.749 111.265 153.464C111.959 154.493 112.526 155.397 112.526 155.473C112.526 155.748 114.755 158.28 116.476 159.96C120.236 163.631 125.444 166.954 129.208 168.082C130.318 168.415 130.933 168.853 131.069 169.41C131.181 169.867 131.221 174.187 131.16 179.01L131.047 187.778L111.023 187.881L91 187.985L91.1087 180.906L91.2175 173.828L100.643 173.721L110.069 173.615L105.821 169.337C101.781 165.269 100.967 164.261 98.341 160.078C93.0194 151.599 90.485 140.298 91.6624 130.296C92.5569 122.695 95.155 115.083 98.5955 109.981C99.2475 109.015 99.7808 108.053 99.7808 107.845C99.7808 107.637 99.9361 107.467 100.126 107.467C100.316 107.467 100.953 106.739 101.54 105.85C103.156 103.407 108.878 97.9202 112.181 95.6471C115.79 93.1633 119.561 91.1525 123.271 89.734C128.389 87.7766 129.237 87.6009 141.322 85.9863C141.497 85.9632 144.096 86.227 147.097 86.5726Z" fill="white"/>
<defs>
<filter id="filter0_d_1472_14295" x="0.612293" y="0.381133" width="281.774" height="281.775" filterUnits="userSpaceOnUse" color-interpolation-filters="sRGB">
<feFlood flood-opacity="0" result="BackgroundImageFix"/>
<feColorMatrix in="SourceAlpha" type="matrix" values="0 0 0 0 0 0 0 0 0 0 0 0 0 0 0 0 0 0 127 0" result="hardAlpha"/>
<feOffset dy="4.38798"/>
<feGaussianBlur stdDeviation="17.0034"/>
<feComposite in2="hardAlpha" operator="out"/>
<feColorMatrix type="matrix" values="0 0 0 0 0 0 0 0 0 0 0 0 0 0 0 0 0 0 0.06 0"/>
<feBlend mode="normal" in2="BackgroundImageFix" result="effect1_dropShadow_1472_14295"/>
<feBlend mode="normal" in="SourceGraphic" in2="effect1_dropShadow_1472_14295" result="shape"/>
</filter>
</defs>
</svg>
