<svg width="80" height="81" viewBox="0 0 80 81" fill="none" xmlns="http://www.w3.org/2000/svg">
<path d="M77.4459 40.0149C77.474 60.7288 60.7284 77.5149 40.0508 77.5149C19.3732 77.5149 2.58215 60.7288 2.55411 40.0149C2.52608 19.301 19.2717 2.51487 39.9493 2.51487C60.6269 2.51487 77.4179 19.301 77.4459 40.0149Z" fill="url(#paint0_linear_1469_1635)" stroke="white" stroke-width="5"/>
<path d="M24.376 24.446C24.07 24.752 24.07 53.228 24.376 53.534C24.628 53.786 48.028 53.84 48.424 53.588C48.568 53.498 48.64 53.21 48.604 52.922L48.55 52.4L37.084 52.346L25.6 52.31V38.99V25.67H34.96H44.32L44.356 28.766L44.41 31.88L47.704 31.934L50.98 31.97V39.584C50.98 43.76 51.052 47.288 51.142 47.414C51.232 47.558 51.52 47.63 51.808 47.594L52.33 47.54L52.384 39.242L52.42 30.944L49.954 28.604C48.586 27.326 46.966 25.814 46.354 25.256L45.22 24.23H34.906C27.13 24.23 24.538 24.284 24.376 24.446ZM47.938 28.766L49.792 30.53H47.776H45.76V28.712C45.76 27.722 45.832 26.93 45.922 26.966C45.994 26.984 46.912 27.812 47.938 28.766Z" fill="white"/>
<path d="M27.3284 27.8841C27.1304 28.0281 27.0224 28.2981 27.0764 28.5681L27.1304 29.0001L34.7624 29.0541C40.2344 29.0721 42.4664 29.0361 42.6284 28.8921C42.9524 28.6221 42.9524 28.2801 42.5924 27.9381C42.3584 27.6861 41.4044 27.6501 34.9784 27.6501C29.2364 27.6501 27.5804 27.7041 27.3284 27.8841Z" fill="white"/>
<path d="M27.1112 31.3401C26.8592 32.3481 26.7872 32.3301 34.9772 32.3301H42.5192L42.7352 31.8801C42.8792 31.5381 42.8792 31.3761 42.6992 31.1601C42.5012 30.9261 41.4752 30.8901 34.8512 30.8901H27.2192L27.1112 31.3401Z" fill="white"/>
<path d="M27.256 34.166C26.968 34.454 26.986 34.94 27.292 35.192C27.454 35.336 30.532 35.372 38.47 35.354C48.658 35.3 49.432 35.282 49.612 34.976C49.756 34.76 49.756 34.58 49.612 34.346C49.432 34.058 48.658 34.04 38.434 33.986C30.064 33.95 27.418 34.004 27.256 34.166Z" fill="white"/>
<path d="M27.256 37.4061C26.968 37.6941 26.986 38.1801 27.292 38.4321C27.454 38.5761 28.966 38.6301 32.44 38.5941C36.886 38.5401 37.372 38.5041 37.552 38.2161C37.696 38.0001 37.696 37.8201 37.552 37.5861C37.372 37.3161 36.886 37.2801 32.422 37.2261C28.732 37.1901 27.418 37.2441 27.256 37.4061Z" fill="white"/>
<path d="M41.6209 37.352C39.8929 37.91 38.4349 39.188 37.6789 40.772C37.2829 41.636 37.2109 42.014 37.2109 43.49C37.2109 44.894 37.3009 45.362 37.6429 46.136C38.1469 47.27 39.6769 48.764 40.8469 49.286C42.0529 49.826 43.8709 49.916 45.3289 49.52C46.4629 49.214 46.4989 49.214 46.8769 49.538C47.0749 49.736 47.4709 50.294 47.7589 50.78C48.5329 52.148 51.9709 55.46 52.8889 55.73C54.8869 56.324 56.5069 54.326 55.5709 52.472C55.0309 51.446 52.0789 48.566 50.7649 47.792C49.2169 46.892 49.0909 46.64 49.4689 45.47C49.8829 44.21 49.7389 41.906 49.1989 40.772C48.5869 39.494 47.7049 38.576 46.4449 37.91C45.4369 37.352 45.1309 37.298 43.6909 37.244C42.8089 37.226 41.8729 37.262 41.6209 37.352ZM44.8969 38.81C46.6429 39.296 48.0829 41.114 48.2269 43.004C48.4069 45.11 47.3449 47 45.4909 47.9C43.1329 49.034 40.2709 47.99 39.0829 45.542C38.5969 44.552 38.5249 44.264 38.5969 43.274C38.6869 41.87 39.1369 40.934 40.1269 39.944C41.3329 38.774 43.1689 38.342 44.8969 38.81ZM52.4569 51.248C53.6809 52.454 54.4009 53.3 54.4009 53.534C54.4009 53.984 53.7709 54.47 53.3209 54.344C52.8349 54.218 49.2709 50.528 48.8569 49.7C48.6589 49.304 48.3349 48.818 48.1189 48.638C47.8489 48.386 47.7949 48.224 47.9209 48.08C48.2449 47.684 50.3689 49.178 52.4569 51.248Z" fill="white"/>
<path d="M44.1034 42.572L42.9694 44.714L42.2494 44.102C41.2774 43.274 40.3594 43.346 40.3594 44.228C40.3594 44.606 42.7354 46.55 43.2034 46.55C43.6714 46.55 43.7074 46.496 45.2194 43.688C46.6414 41.024 46.7494 40.43 45.7594 40.43C45.2734 40.43 45.1654 40.592 44.1034 42.572Z" fill="white"/>
<path d="M27.256 40.466C26.968 40.754 26.986 41.24 27.292 41.492C27.454 41.636 28.75 41.69 31.558 41.654L35.59 41.6V40.97V40.34L31.54 40.286C28.534 40.25 27.418 40.304 27.256 40.466Z" fill="white"/>
<path d="M27.1134 43.76C26.8794 44.696 27.1134 44.75 31.1634 44.75C33.1974 44.75 34.9794 44.678 35.1054 44.588C35.2494 44.498 35.3214 44.21 35.2854 43.922L35.2314 43.4L31.2354 43.346L27.2214 43.31L27.1134 43.76Z" fill="white"/>
<path d="M27.1107 47C26.8767 47.954 27.0567 47.99 31.7367 47.99C35.3907 47.99 36.0567 47.954 36.2907 47.702C36.4527 47.558 36.5787 47.324 36.5787 47.198C36.5787 46.604 36.1647 46.55 31.6827 46.55H27.2187L27.1107 47Z" fill="white"/>
<path d="M27.1674 49.736C26.9154 49.97 27.0594 50.69 27.3834 50.87C27.5994 50.978 29.7594 51.05 33.1074 51.05C38.9214 51.05 39.1914 51.014 39.0654 50.132L39.0114 49.7L33.1434 49.646C29.9214 49.628 27.2394 49.664 27.1674 49.736Z" fill="white"/>
<defs>
<linearGradient id="paint0_linear_1469_1635" x1="39.9459" y1="0.0148925" x2="41.7666" y2="141.835" gradientUnits="userSpaceOnUse">
<stop stop-color="#1643C3"/>
<stop offset="1"/>
</linearGradient>
</defs>
</svg>
