<svg width="80" height="81" viewBox="0 0 80 81" fill="none" xmlns="http://www.w3.org/2000/svg">
<path d="M77.4459 40.0149C77.474 60.7288 60.7284 77.5149 40.0508 77.5149C19.3732 77.5149 2.58215 60.7288 2.55411 40.0149C2.52608 19.301 19.2717 2.51487 39.9493 2.51487C60.6269 2.51487 77.4179 19.301 77.4459 40.0149Z" fill="url(#paint0_linear_1469_1655)" stroke="white" stroke-width="5"/>
<g clip-path="url(#clip0_1469_1655)">
<path d="M37.2271 22.8249C33.6631 23.8149 30.6751 26.9109 29.8291 30.5109C29.3071 32.7249 29.5951 35.3709 30.5491 37.3869C31.0531 38.4309 31.1251 38.2869 29.3791 39.5109L28.1911 40.3389L27.6691 39.9609C27.3091 39.6909 26.8051 39.5469 26.0311 39.5109C25.0411 39.4389 24.7711 39.4929 24.0691 39.9069C23.0251 40.5189 22.5391 41.4549 22.5391 42.8049C22.5391 44.3169 23.1691 45.2709 24.5551 45.8649C26.9851 46.8729 29.5231 44.7849 29.1271 42.1209L29.0011 41.3469L30.3691 40.3929L31.7371 39.4389L32.9071 40.5369C33.5371 41.1489 34.1491 41.6349 34.2391 41.6349C34.5811 41.6349 34.4011 42.1029 32.7991 45.1269L31.1611 48.2049L30.3871 48.1509C27.4531 47.9169 25.7071 51.4989 27.6871 53.6949C29.2711 55.4409 32.2231 55.0269 33.1771 52.9029C33.7351 51.6789 33.5191 50.2749 32.6011 48.9969C32.4211 48.7629 32.6551 48.2049 33.8791 45.9009C35.8411 42.1929 35.6071 42.4629 36.5791 42.8049C37.0291 42.9669 37.8031 43.1469 38.2891 43.2189L39.1891 43.3449L39.2431 47.1429L39.2791 50.9229L38.6671 51.1389C37.3711 51.6069 36.4171 53.3349 36.6691 54.7929C36.8311 55.6929 37.6411 56.7909 38.4331 57.1689C39.2431 57.5649 40.7551 57.5649 41.5651 57.1689C42.8791 56.5569 43.6351 54.7929 43.2391 53.3169C42.9871 52.4169 42.1411 51.4269 41.3311 51.1389L40.7191 50.9229V47.1789V43.4349L41.2231 43.3449C42.2671 43.1289 43.7071 42.7509 43.9951 42.6249C44.3191 42.4989 44.5891 42.9309 46.6411 46.8729L47.6131 48.7449L47.1091 49.5189C45.3631 52.1649 47.5231 55.2969 50.7091 54.7029C51.4291 54.5589 52.4911 53.7129 52.8871 52.9569C53.2111 52.3269 53.2111 50.7969 52.8871 50.0409C52.4011 48.8709 50.8891 48.0249 49.5391 48.1509L48.8371 48.2049L47.1451 45.0189C46.2091 43.2549 45.5071 41.8149 45.5791 41.8149C45.6511 41.8149 46.2991 41.2749 47.0011 40.6269L48.2611 39.4569L49.6291 40.3929L50.9791 41.3469L50.8711 42.1749C50.7091 43.3809 51.0511 44.3709 51.8611 45.1089C53.4631 46.5489 55.6051 46.4049 56.8651 44.7669C57.5671 43.8309 57.6571 42.0489 57.0631 41.0049C56.1991 39.5289 54.0031 38.9709 52.4551 39.8349L51.7351 40.2309L50.3671 39.2949C49.5931 38.7909 48.9991 38.3229 49.0351 38.2509C50.3671 35.7129 50.7271 33.2289 50.1871 30.6369C49.3951 26.9649 46.3531 23.7969 42.6991 22.8249C41.4751 22.5009 38.4331 22.5009 37.2271 22.8249ZM42.2491 24.0669C45.1831 24.8589 47.5591 27.0189 48.6391 29.8989C49.1791 31.3209 49.3051 33.4809 48.9271 34.9569C48.4591 36.7929 47.0191 39.1869 47.0191 38.1429C47.0191 37.6029 46.2811 36.2709 45.6151 35.6049C44.8051 34.7769 43.3831 34.0929 42.1951 33.9489L41.3131 33.8589L40.7011 34.8669C40.3591 35.4249 40.0531 35.8749 39.9991 35.8749C39.9451 35.8749 39.6391 35.4249 39.2971 34.8669L38.6851 33.8589L37.8211 33.9489C36.6331 34.0929 35.3731 34.6689 34.5271 35.4789C33.8251 36.1629 32.9971 37.6749 32.9791 38.3049C32.9611 38.6289 32.9431 38.6289 32.6011 38.2149C31.6291 37.0629 30.8191 34.6689 30.8191 32.9589C30.8191 29.9349 32.6551 26.6589 35.2291 25.1469C37.3711 23.9049 40.0891 23.4729 42.2491 24.0669ZM38.7931 36.5049C39.4051 37.5129 39.6391 37.7649 39.9991 37.7649C40.3411 37.7649 40.5931 37.5129 41.2231 36.5049C41.8891 35.4069 42.0511 35.2449 42.4651 35.2989C44.1031 35.4969 45.6691 37.2249 45.8851 39.0789L45.9751 39.9249L44.9311 40.6089C41.9791 42.5349 38.0191 42.5349 35.0671 40.6089L34.0231 39.9249L34.1131 39.0789C34.3291 37.2789 35.5351 35.8569 37.2991 35.3169C37.5511 35.2449 37.8031 35.2089 37.8751 35.2089C37.9471 35.2269 38.3611 35.8029 38.7931 36.5049ZM27.0391 41.0949C27.6151 41.5089 28.0291 42.5169 27.8671 43.1469C27.6871 43.8489 27.0571 44.4969 26.3371 44.7129C25.0231 45.1089 23.7991 44.1009 23.7991 42.6069C23.7991 41.6349 24.7531 40.7349 25.7791 40.7349C26.2471 40.7349 26.7331 40.8789 27.0391 41.0949ZM55.5871 41.3469C57.3511 43.1109 55.1011 45.7749 53.0131 44.4069C51.3571 43.3449 52.1671 40.7349 54.1651 40.7349C54.8491 40.7349 55.0651 40.8249 55.5871 41.3469ZM31.1791 49.6629C32.5831 50.4909 32.5831 52.5249 31.1791 53.2449C29.3431 54.1989 27.4351 52.2909 28.3891 50.4549C28.9111 49.4649 30.2071 49.1049 31.1791 49.6629ZM50.8711 49.7169C51.8611 50.3649 52.1311 51.4089 51.6091 52.4349C50.8891 53.8389 48.7291 53.8389 48.0091 52.4349C47.0371 50.5629 49.1431 48.5829 50.8711 49.7169ZM41.0971 52.4889C42.3211 53.2989 42.3391 54.9009 41.1691 55.8189C39.6391 57.0249 37.3351 55.2429 38.0911 53.4429C38.3971 52.7229 39.2971 52.0749 40.0171 52.0749C40.2691 52.0749 40.7551 52.2549 41.0971 52.4889Z" fill="white"/>
<path d="M38.3783 25.5429C36.0923 26.5329 35.3903 29.3949 36.9203 31.5009C38.0903 33.1029 40.6463 33.4629 42.3743 32.2389C44.2103 30.9609 44.3543 27.7749 42.6623 26.2089C41.6723 25.2909 39.6923 24.9669 38.3783 25.5429ZM41.1863 26.8029C41.9963 27.1989 42.5723 28.1529 42.5723 29.1609C42.5723 30.0609 42.1943 30.6909 41.2583 31.3209C39.7103 32.3829 37.4243 31.0869 37.4243 29.1609C37.4243 27.1809 39.3863 25.9569 41.1863 26.8029Z" fill="white"/>
</g>
<defs>
<linearGradient id="paint0_linear_1469_1655" x1="39.9459" y1="0.0148925" x2="41.7666" y2="141.835" gradientUnits="userSpaceOnUse">
<stop stop-color="#1643C3"/>
<stop offset="1"/>
</linearGradient>
<clipPath id="clip0_1469_1655">
<rect width="36" height="36" fill="white" transform="translate(22 22.0149)"/>
</clipPath>
</defs>
</svg>
