<svg width="80" height="81" viewBox="0 0 80 81" fill="none" xmlns="http://www.w3.org/2000/svg">
<path d="M77.4459 40.0149C77.474 60.7288 60.7284 77.5149 40.0508 77.5149C19.3732 77.5149 2.58215 60.7288 2.55411 40.0149C2.52608 19.301 19.2717 2.51487 39.9493 2.51487C60.6269 2.51487 77.4179 19.301 77.4459 40.0149Z" fill="url(#paint0_linear_1469_1603)" stroke="white" stroke-width="5"/>
<g clip-path="url(#clip0_1469_1603)">
<path d="M39.0717 21.193C37.7432 21.8239 37.3869 23.5606 38.3592 24.6739C38.9678 25.3567 40.1182 25.5719 40.9791 25.1489C41.7584 24.7629 42.1814 24.0876 42.1814 23.2044C42.1814 22.3137 41.7139 21.5641 40.9272 21.193C40.6377 21.0594 40.4299 21.0149 39.9994 21.0149C39.5689 21.0149 39.3611 21.0594 39.0717 21.193ZM40.6229 22.4251C40.9939 22.7516 41.0904 23.093 40.9272 23.5087C40.7639 23.9391 40.4373 24.1692 39.9994 24.1692C39.5615 24.1692 39.235 23.9391 39.0717 23.5087C38.9084 23.093 39.0049 22.7516 39.376 22.4251C39.5912 22.2395 39.6951 22.2024 39.9994 22.2024C40.3037 22.2024 40.4076 22.2395 40.6229 22.4251Z" fill="white"/>
<path d="M27.353 26.0321C26.826 26.1954 26.1729 26.8634 26.017 27.3978C25.8612 27.9321 25.8686 28.422 26.0467 28.897C26.2545 29.4536 26.5737 29.8025 27.1229 30.0771C27.5534 30.2849 27.6424 30.3071 28.1768 30.2775C29.4385 30.2181 30.2104 29.4462 30.2698 28.1919C30.292 27.665 30.2698 27.5685 30.062 27.138C29.9284 26.8708 29.7057 26.5591 29.5498 26.4329C28.9635 25.9505 28.1248 25.8021 27.353 26.0321ZM28.5405 27.2196C29.2456 27.5536 29.2678 28.6372 28.5776 28.9935C27.6944 29.4462 26.7295 28.4739 27.2342 27.6353C27.5311 27.1528 28.0432 26.9896 28.5405 27.2196Z" fill="white"/>
<path d="M51.0954 26.0618C50.5536 26.2696 50.2048 26.5962 49.9376 27.138C49.7298 27.5684 49.7075 27.6575 49.7372 28.1919C49.7966 29.4536 50.5684 30.2255 51.8227 30.2848C52.3497 30.3071 52.4462 30.2848 52.8766 30.077C53.886 29.5798 54.3165 28.5259 53.9825 27.3977C53.8192 26.8411 53.1735 26.1954 52.6169 26.0321C52.0899 25.8763 51.5556 25.8911 51.0954 26.0618ZM52.3794 27.2493C52.8618 27.5462 53.0251 28.0583 52.795 28.5555C52.4684 29.2384 51.4516 29.2903 51.0583 28.6372C50.5239 27.7688 51.5184 26.7298 52.3794 27.2493Z" fill="white"/>
<path d="M38.7603 27.6427C37.8845 28.5184 37.8474 28.5704 37.8474 28.8599C37.8474 29.1048 37.8845 29.2013 38.0403 29.32C38.3521 29.5649 38.5524 29.5204 39.0052 29.0974L39.406 28.7114V30.4184V32.1181L38.7751 32.2071C37.5653 32.3852 36.3927 32.8602 35.3833 33.5802L34.8192 33.9809L33.654 32.8157L32.4888 31.6505L33.0232 31.5985C33.3942 31.5614 33.5946 31.502 33.6985 31.3981C33.8915 31.2052 33.8841 30.7821 33.6911 30.5892C33.5501 30.4481 33.4462 30.4407 32.1771 30.4407C30.9153 30.4407 30.804 30.4481 30.6185 30.5966L30.4255 30.745V32.1477V33.5505L30.6185 33.6989C31.138 34.1071 31.613 33.7435 31.613 32.9493V32.556L32.7708 33.7138L33.9212 34.8642L33.4536 35.5692C32.7411 36.6306 32.2958 37.8181 32.1622 38.9684L32.1103 39.4212H30.4552C29.5423 39.4212 28.7927 39.3989 28.7927 39.3767C28.7927 39.347 28.9411 39.1614 29.1267 38.9684C29.3122 38.7755 29.4607 38.5454 29.4607 38.4638C29.4607 38.0407 29.0821 37.729 28.6962 37.8255C28.5774 37.8552 28.147 38.2559 27.6052 38.8349C26.4103 40.1188 26.4028 40.0372 27.6274 41.2544C28.5032 42.1302 28.5552 42.1673 28.8446 42.1673C29.0896 42.1673 29.186 42.1302 29.3048 41.9743C29.5497 41.6626 29.5052 41.4622 29.0821 41.0095L28.6962 40.6087H30.4032H32.1103L32.1993 41.2099C32.3849 42.4196 32.8524 43.5626 33.5798 44.5794L33.9954 45.1583L32.8228 46.3384C32.1771 46.9841 31.6427 47.4739 31.6353 47.422C31.6278 47.37 31.5982 47.1325 31.5759 46.895C31.5165 46.3903 31.3532 46.1751 31.0118 46.1751C30.7001 46.1751 30.5294 46.2864 30.4552 46.5239C30.4181 46.6427 30.4032 47.3032 30.4255 48.0009C30.4774 49.7153 30.3439 49.5892 32.1399 49.5892H33.5353L33.6837 49.3962C34.0919 48.8767 33.7282 48.4017 32.9341 48.4017H32.5407L33.7208 47.2216L34.8935 46.0489L35.5763 46.5017C36.6153 47.1993 37.8103 47.6446 38.9532 47.7782L39.406 47.8302V49.5224C39.406 50.4575 39.3837 51.222 39.3614 51.222C39.3317 51.222 39.1462 51.0735 38.9532 50.888C38.7603 50.7024 38.5302 50.554 38.4485 50.554C38.0255 50.554 37.7138 50.9325 37.8103 51.3184C37.8399 51.4372 38.2407 51.8677 38.8196 52.4095C40.1036 53.6044 40.022 53.6118 41.2392 52.3872C42.1149 51.5114 42.1521 51.4595 42.1521 51.17C42.1521 50.9251 42.1149 50.8286 41.9591 50.7099C41.6474 50.4649 41.447 50.5095 40.9942 50.9325L40.5935 51.3184V49.5817V47.8376L41.3134 47.7188C42.1669 47.5704 42.4044 47.4294 42.4341 47.0434C42.4489 46.8356 42.4118 46.7317 42.2708 46.5833C42.0556 46.3681 41.9962 46.3606 41.2689 46.5091C40.4821 46.6798 39.2501 46.6575 38.4708 46.472C37.2239 46.1825 36.0735 45.5145 35.1681 44.572C33.9138 43.2583 33.32 41.7813 33.32 39.9778C33.32 38.1001 34.0103 36.4895 35.3685 35.1833C36.0067 34.5821 36.4298 34.2927 37.2091 33.9216C38.931 33.12 40.9942 33.12 42.7161 33.9216C43.4954 34.2927 43.9185 34.5821 44.5567 35.1833C45.9001 36.4747 46.6052 38.1001 46.6052 39.9259C46.6052 42.0188 45.8333 43.6739 44.1782 45.1286C43.8739 45.3958 43.6142 45.6852 43.5919 45.7817C43.5177 46.0638 43.6958 46.3903 43.963 46.4571C44.2376 46.5388 44.4603 46.4645 44.8239 46.1751L45.0911 45.9599L46.3009 47.1696L47.5107 48.3794L46.9763 48.4313C46.6052 48.4684 46.4048 48.5278 46.3009 48.6317C46.1079 48.8247 46.1153 49.2477 46.3083 49.4407C46.4493 49.5817 46.5532 49.5892 47.8224 49.5892C49.0841 49.5892 49.1954 49.5817 49.381 49.4333L49.5739 49.2849V47.8821V46.4794L49.381 46.3309C48.8614 45.9227 48.3864 46.2864 48.3864 47.0806V47.4739L47.1915 46.279L45.9966 45.0841L46.4271 44.4606C47.1247 43.429 47.5478 42.3899 47.7259 41.2099L47.8149 40.6087H49.5146C50.4423 40.6087 51.2067 40.6309 51.2067 40.6532C51.2067 40.6829 51.0583 40.8685 50.8728 41.0614C50.6872 41.2544 50.5388 41.4845 50.5388 41.5661C50.5388 41.9892 50.9173 42.3009 51.3032 42.2044C51.422 42.1747 51.8524 41.7739 52.3942 41.195C53.5892 39.911 53.5966 39.9927 52.372 38.7755C51.4962 37.8997 51.4442 37.8626 51.1548 37.8626C50.9099 37.8626 50.8134 37.8997 50.6946 38.0556C50.4497 38.3673 50.4942 38.5677 50.9173 39.0204L51.3032 39.4212H49.5591H47.8149L47.763 38.9684C47.6294 37.8181 47.1841 36.6306 46.4716 35.5692L46.004 34.8642L47.1767 33.6915C47.8224 33.0458 48.3567 32.556 48.3642 32.6079C48.3716 32.6599 48.4013 32.8974 48.4235 33.1349C48.4829 33.6395 48.6462 33.8548 48.9876 33.8548C49.2993 33.8548 49.47 33.7435 49.5442 33.5059C49.5814 33.3872 49.5962 32.7267 49.5739 32.029C49.522 30.3145 49.6556 30.4407 47.8595 30.4407H46.4642L46.3157 30.6337C45.9075 31.1532 46.2712 31.6282 47.0653 31.6282H47.4587L46.2786 32.8083L45.106 33.9809L44.5419 33.5802C43.5474 32.8677 42.397 32.4001 41.1946 32.2145L40.5935 32.1255V30.463C40.5935 29.5501 40.6157 28.8079 40.638 28.8079C40.6677 28.8079 40.8532 28.9563 41.0462 29.1419C41.2392 29.3274 41.4692 29.4759 41.5509 29.4759C41.9739 29.4759 42.2857 29.0974 42.1892 28.7114C42.1595 28.5927 41.7587 28.1622 41.1798 27.6204C39.8958 26.4255 39.9774 26.4181 38.7603 27.6427Z" fill="white"/>
<path d="M38.9177 34.4411C38.7099 34.5301 38.5169 34.8047 38.5169 35.0125C38.5169 35.1016 38.5837 35.2575 38.6727 35.3688C38.8212 35.5543 38.836 35.5618 39.7267 35.5618C40.313 35.5543 40.788 35.5989 41.07 35.6731C42.5692 36.0665 43.8755 37.3801 44.2614 38.8719C44.4099 39.4583 44.4099 40.4973 44.2614 41.0836C43.972 42.2118 43.0665 43.3547 42.0423 43.8891C40.2759 44.8094 38.2497 44.4977 36.847 43.095C35.9638 42.2118 35.5481 41.2247 35.5481 39.9926C35.5481 38.6938 35.9563 37.7364 36.936 36.7715C37.5001 36.2149 37.552 36.1407 37.552 35.8735C37.552 35.5024 37.3739 35.3391 36.9806 35.3391C36.7134 35.3391 36.6243 35.3911 36.1567 35.829C35.5333 36.4004 35.0434 37.1055 34.7391 37.87C34.42 38.679 34.3384 39.2059 34.3755 40.2524C34.4052 40.9872 34.4497 41.2766 34.613 41.759C34.9024 42.6051 35.3403 43.3102 35.986 43.9559C36.6317 44.5942 37.3294 45.0321 38.1829 45.3364C38.7395 45.5293 38.8509 45.5442 39.9642 45.5442C41.0774 45.5442 41.1888 45.5293 41.7454 45.3364C42.5989 45.0321 43.2966 44.5942 43.9423 43.9559C44.5806 43.3102 45.0184 42.6125 45.3227 41.759C45.5157 41.2024 45.5306 41.0911 45.5306 39.9778C45.5306 38.8645 45.5157 38.7532 45.3227 38.1965C45.0184 37.343 44.5806 36.6454 43.9423 35.9997C43.2966 35.354 42.5915 34.9161 41.7454 34.6266C41.2333 34.4485 41.0106 34.4188 40.1126 34.3965C39.5411 34.3891 38.9993 34.404 38.9177 34.4411Z" fill="white"/>
<path d="M22.6847 37.8625C22.0167 38.0333 21.4304 38.5157 21.1557 39.1243C20.9331 39.6141 20.9405 40.4454 21.178 40.9426C21.6975 42.0411 23.0557 42.5235 24.1319 41.9965C24.9261 41.6106 25.3417 40.9278 25.3417 40.0149C25.3417 39.384 25.1858 38.961 24.7925 38.5083C24.3323 37.9887 23.3749 37.6918 22.6847 37.8625ZM23.7534 39.2059C23.9761 39.3618 24.1913 39.7625 24.1913 40.0149C24.1913 40.668 23.4268 41.2024 22.8405 40.9575C22.1948 40.6903 21.9722 39.911 22.3878 39.4137C22.7663 38.9684 23.3007 38.8793 23.7534 39.2059Z" fill="white"/>
<path d="M56.2382 37.8848C54.3011 38.434 54.0636 41.1133 55.8671 41.9965C56.9432 42.5235 58.3014 42.0411 58.821 40.9426C58.9546 40.6532 58.9991 40.4454 58.9991 40.0149C58.9991 39.3469 58.7987 38.8645 58.3608 38.4415C57.8116 37.9145 56.9432 37.6918 56.2382 37.8848ZM57.1659 39.0797C57.819 39.3469 58.0268 40.1336 57.5889 40.6383C57.2624 41.0094 56.921 41.1059 56.5054 40.9426C55.6518 40.6161 55.585 39.5547 56.4014 39.1391C56.7874 38.9461 56.8468 38.9387 57.1659 39.0797Z" fill="white"/>
<path d="M27.1015 49.9677C26.1144 50.4575 25.684 51.5114 26.018 52.6321C26.1812 53.1887 26.8269 53.8345 27.3836 53.9977C27.918 54.1536 28.4078 54.1462 28.8828 53.968C29.4023 53.7751 29.7512 53.4782 30.0183 52.9958C30.2187 52.6321 30.241 52.5282 30.241 51.927C30.241 51.1329 30.0629 50.7098 29.5508 50.2497C29.15 49.9009 28.6824 49.7376 28.0515 49.7376C27.6433 49.7376 27.4726 49.7821 27.1015 49.9677ZM28.5785 51.0364C29.2687 51.3927 29.2465 52.4762 28.5414 52.8102C28.0441 53.0403 27.532 52.877 27.2351 52.3946C26.7305 51.5559 27.6953 50.5837 28.5785 51.0364Z" fill="white"/>
<path d="M51.0806 49.8564C50.6649 50.0048 50.1677 50.4576 49.945 50.8955C49.8114 51.1627 49.752 51.4076 49.7372 51.838C49.7075 52.365 49.7298 52.4615 49.9376 52.892C50.4348 53.8939 51.4962 54.3318 52.6169 53.9978C53.1735 53.8345 53.8192 53.1888 53.9825 52.6322C54.1384 52.0978 54.1309 51.608 53.9528 51.133C53.745 50.5838 53.4333 50.2275 52.8989 49.9677C52.513 49.7748 52.3645 49.7377 51.9192 49.7451C51.6298 49.7451 51.2513 49.797 51.0806 49.8564ZM52.4313 51.0736C52.7059 51.2443 52.9138 51.6228 52.9138 51.942C52.9138 52.224 52.6688 52.6025 52.3794 52.7806C51.5407 53.2853 50.5684 52.3205 51.0212 51.4373C51.2735 50.9548 51.9563 50.7841 52.4313 51.0736Z" fill="white"/>
<path d="M39.2807 54.7696C38.5237 55.0442 38.0042 55.6231 37.8483 56.395C37.6405 57.3747 38.16 58.4063 39.0729 58.8368C39.5924 59.0817 40.4088 59.0817 40.9284 58.8368C42.2569 58.206 42.6131 56.4692 41.6409 55.356C41.1065 54.7548 40.06 54.4876 39.2807 54.7696ZM40.5795 56.0388C41.1065 56.4099 41.1288 57.1595 40.6315 57.5974C40.4088 57.7903 40.3049 57.8274 40.0006 57.8274C39.6963 57.8274 39.5924 57.7903 39.3698 57.5974C39.2288 57.4712 39.0729 57.2411 39.0284 57.0853C38.9541 56.8329 38.9616 56.7587 39.1174 56.4396C39.4217 55.8384 40.0526 55.6603 40.5795 56.0388Z" fill="white"/>
</g>
<defs>
<linearGradient id="paint0_linear_1469_1603" x1="39.9459" y1="0.0148925" x2="41.7666" y2="141.835" gradientUnits="userSpaceOnUse">
<stop stop-color="#1643C3"/>
<stop offset="1"/>
</linearGradient>
<clipPath id="clip0_1469_1603">
<rect width="38" height="38" fill="white" transform="translate(21 21.0149)"/>
</clipPath>
</defs>
</svg>
